<svg version="1.1" preserveAspectRatio="none" xmlns="http://www.w3.org/2000/svg" width="500" height="500" viewBox="0 0 500 500"><rect width="100%" height="100%" fill="#373737" fill-opacity="1"/><svg viewBox="490.1566 534.336 409.6216 281.2" width="333" height="228.6002495962127" x="83.5px" y="135.6999px" xmlns="http://www.w3.org/2000/svg" xmlns:xlink="http://www.w3.org/1999/xlink" preserveAspectRatio="none"><defs></defs><style>.background {fill:#373737;fill-opacity:1;}.companyName {fill:#FF87B7;fill-opacity:1;}.icon3 {fill:#BCBCBC;fill-opacity:1;}.icon3-str {stroke:#BCBCBC;stroke-opacity:1;}.shapeStroke-str {stroke:#F5F5F5;stroke-opacity:1;}</style><g opacity="1" transform="rotate(0 490.1566 534.336)">
<svg width="206.8108" height="281.2" x="490.1566" y="534.336" version="1.1" preserveAspectRatio="none" viewBox="0 0 206.8108 281.2">
  <defs><rect x="0" y="0" width="206.8108" height="281.2" rx="0px" ry="0px" id="id-60p5ZquTE1705558183433"></rect></defs><use class="companyName shapeStroke-str" style="stroke-width:0;" xlink:href="#id-60p5ZquTE1705558183433"></use>
</svg>
</g><g opacity="1" transform="rotate(0 694.9674 534.336)">
<svg width="204.8108" height="281.2" x="694.9674" y="534.336" version="1.1" preserveAspectRatio="none" viewBox="0 0 204.8108 281.2">
  <defs><rect x="0" y="0" width="204.8108" height="281.2" rx="0px" ry="0px" id="id-hs7pIl34o1705558183433"></rect></defs><use class="icon3 shapeStroke-str" style="stroke-width:0;" xlink:href="#id-hs7pIl34o1705558183433"></use>
</svg>
</g><g opacity="1" transform="rotate(0 632.8695 736.336)">
<svg width="124.1958" height="19.2" x="632.8695" y="736.336" version="1.1" preserveAspectRatio="none" viewBox="-0.64 -29.68 244.23999999999998 37.760000000000005">
  <g transform="matrix(1 0 0 1 0 0)" class="background"><path id="id-6izo4zJp8" d="M8.48 0.48Q5.64 0.48 3.26-0.58Q0.88-1.64-0.64-3.60L-0.64-3.60L2.96-7.92Q5.24-4.84 8.16-4.84L8.16-4.84Q12.12-4.84 12.12-9.48L12.12-9.48L12.12-22.80L2.28-22.80L2.28-28L18.56-28L18.56-9.84Q18.56-4.68 16-2.10Q13.44 0.48 8.48 0.48L8.48 0.48Z M41.20-21.84Q46.20-21.84 48.88-19.46Q51.56-17.08 51.56-12.28L51.56-12.28L51.56 0L45.72 0L45.72-2.68Q43.96 0.32 39.16 0.32L39.16 0.32Q36.68 0.32 34.86-0.52Q33.04-1.36 32.08-2.84Q31.12-4.32 31.12-6.20L31.12-6.20Q31.12-9.20 33.38-10.92Q35.64-12.64 40.36-12.64L40.36-12.64L45.32-12.64Q45.32-14.68 44.08-15.78Q42.84-16.88 40.36-16.88L40.36-16.88Q38.64-16.88 36.98-16.34Q35.32-15.80 34.16-14.88L34.16-14.88L31.92-19.24Q33.68-20.48 36.14-21.16Q38.60-21.84 41.20-21.84L41.20-21.84ZM40.72-3.88Q42.32-3.88 43.56-4.62Q44.80-5.36 45.32-6.80L45.32-6.80L45.32-9L41.04-9Q37.20-9 37.20-6.48L37.20-6.48Q37.20-5.28 38.14-4.58Q39.08-3.88 40.72-3.88L40.72-3.88Z M80.16-21.52L86.16-21.52L76.44 1.32Q74.96 5.04 72.78 6.56Q70.60 8.08 67.52 8.08L67.52 8.08Q65.84 8.08 64.20 7.56Q62.56 7.04 61.52 6.12L61.52 6.12L63.80 1.68Q64.52 2.32 65.46 2.68Q66.40 3.04 67.32 3.04L67.32 3.04Q68.60 3.04 69.40 2.42Q70.20 1.80 70.84 0.36L70.84 0.36L70.92 0.16L61.60-21.52L68.04-21.52L74.08-6.92L80.16-21.52Z M148.04 0L141.96 0L141.92-16.80L133.68-2.96L130.76-2.96L122.56-16.44L122.56 0L116.48 0L116.48-28L121.84-28L132.32-10.60L142.64-28L147.96-28L148.04 0Z M170.92-21.84Q175.92-21.84 178.60-19.46Q181.28-17.08 181.28-12.28L181.28-12.28L181.28 0L175.44 0L175.44-2.68Q173.68 0.32 168.88 0.32L168.88 0.32Q166.40 0.32 164.58-0.52Q162.76-1.36 161.80-2.84Q160.84-4.32 160.84-6.20L160.84-6.20Q160.84-9.20 163.10-10.92Q165.36-12.64 170.08-12.64L170.08-12.64L175.04-12.64Q175.04-14.68 173.80-15.78Q172.56-16.88 170.08-16.88L170.08-16.88Q168.36-16.88 166.70-16.34Q165.04-15.80 163.88-14.88L163.88-14.88L161.64-19.24Q163.40-20.48 165.86-21.16Q168.32-21.84 170.92-21.84L170.92-21.84ZM170.44-3.88Q172.04-3.88 173.28-4.62Q174.52-5.36 175.04-6.80L175.04-6.80L175.04-9L170.76-9Q166.92-9 166.92-6.48L166.92-6.48Q166.92-5.28 167.86-4.58Q168.80-3.88 170.44-3.88L170.44-3.88Z M200.88-18.68Q202.00-20.24 203.90-21.04Q205.80-21.84 208.28-21.84L208.28-21.84L208.28-16.08Q207.24-16.16 206.88-16.16L206.88-16.16Q204.20-16.16 202.68-14.66Q201.16-13.16 201.16-10.16L201.16-10.16L201.16 0L194.92 0L194.92-21.52L200.88-21.52L200.88-18.68Z M236.04 0L229.24-8.44L226.24-5.48L226.24 0L220.00 0L220.00-29.68L226.24-29.68L226.24-12.88L235.36-21.52L242.80-21.52L233.84-12.40L243.60 0L236.04 0Z"/></g>
</svg>
</g><g opacity="1" transform="rotate(0 540.1566 594.336)">
<svg width="309.6216" height="120" x="540.1566" y="594.336" version="1.1" preserveAspectRatio="none" viewBox="0.6641 -26.5039 86.42569999999999 33.4961">
  <g transform="matrix(1 0 0 1 0 0)" class="background"><path id="id-D6z1nYkh2" d="M4.34-5.51L4.34-5.51Q3.98-5.35 3.54-5.35Q3.11-5.35 2.57-5.98Q2.03-6.60 1.60-7.54L1.60-7.54Q0.66-9.65 0.66-11.66L0.66-11.66Q0.66-12.93 1.15-13.67L1.15-13.67Q1.15-13.67 2.97-15.66L2.97-15.66Q3.83-16.64 4.82-17.38L4.82-17.38Q16.35-25.78 28.16-26.41L28.16-26.41Q29.82-26.50 30.74-26.50Q31.66-26.50 32.24-26.24Q32.81-25.98 33.34-25.56Q33.87-25.14 34.34-24.62Q34.80-24.10 35.16-23.59L35.16-23.59Q35.90-22.56 35.90-22.13Q35.90-21.70 35.72-21.12Q35.55-20.55 35.31-19.87Q35.08-19.20 34.80-18.54L34.80-18.54L34.38-17.40Q31.46-9.88 27.46-3.28L27.46-3.28Q26.13-1.07 25.24 0.13Q24.36 1.33 23.76 2.05Q23.16 2.77 22.48 3.48Q21.80 4.18 21.02 4.81Q20.23 5.45 19.41 5.94L19.41 5.94Q17.62 6.99 15.86 6.99L15.86 6.99Q14.69 6.99 13.20 5.76L13.20 5.76Q11.64 4.45 11.64 3.11L11.64 3.11Q11.64 0.92 15.92-3.28L15.92-3.28Q18.16-5.49 20-6.87Q21.84-8.24 22.66-8.73L22.66-8.73Q25.72-14.53 26.43-16.00L26.43-16.00L27.52-18.32Q28.34-20.14 28.34-20.49L28.34-20.49Q28.34-21.37 27.40-21.37Q26.46-21.37 25-20.92Q23.54-20.47 21.86-19.70Q20.18-18.93 18.37-17.90Q16.56-16.88 14.83-15.73Q13.11-14.59 11.53-13.38Q9.96-12.17 8.75-11.04L8.75-11.04Q6.07-8.55 5.82-7.21L5.82-7.21Q5.57-6.00 4.34-5.51Z M73.77-10.70L73.77-10.70Q73.77-7.83 75.57-7.83L75.57-7.83Q76.82-7.83 79.88-10.02L79.88-10.02Q82.66-12.07 83.18-12.60L83.18-12.60Q84.39-13.61 85.72-13.61L85.72-13.61Q86.29-13.61 86.69-13.23Q87.09-12.85 87.09-12.09Q87.09-11.33 86.72-10.70Q86.35-10.08 85.77-9.41Q85.20-8.75 84.35-7.93Q83.50-7.11 82.40-6.20Q81.31-5.29 80.01-4.39Q78.71-3.50 77.32-2.77L77.32-2.77Q74.20-1.17 71.68-1.17L71.68-1.17Q68.79-1.17 67.75-3.79L67.75-3.79Q67.15-5.29 67.15-7.40L67.15-7.40L61.46-3.55Q55.63 0.55 54.51 0.80L54.51 0.80Q53.95 0.94 53.37 0.94Q52.79 0.94 52.29 0.83Q51.78 0.72 51.39 0.47L51.39 0.47Q50.49-0.06 50.49-1.09L50.49-1.09Q50.49-1.50 51.04-3.09L51.04-3.09L52.71-7.70Q53.50-9.92 53.50-10.37L53.50-10.37Q53.50-10.53 53.30-10.53Q53.11-10.53 52.58-10.12Q52.05-9.71 51.31-9.06L51.31-9.06L46.66-5L44.22-2.97Q40.47 0.02 38.11 0.02L38.11 0.02Q36.99 0.02 35.86-0.98L35.86-0.98Q34.63-2.03 34.63-3.52Q34.63-5 34.91-6.76Q35.20-8.52 35.72-10.15Q36.25-11.78 37.03-13.21Q37.81-14.65 38.81-15.70L38.81-15.70Q40.96-18.01 43.88-18.01Q46.80-18.01 46.80-16.29L46.80-16.29Q46.80-15.55 46.00-14.02L46.00-14.02Q44.30-10.66 44.30-10.40Q44.30-10.14 44.46-9.99Q44.63-9.84 44.82-9.84L44.82-9.84Q45.23-9.84 46.00-10.51L46.00-10.51Q51.02-14.90 52.31-15.96Q53.61-17.01 54.82-17.81L54.82-17.81Q57.60-19.63 59.24-19.63L59.24-19.63Q60.59-19.63 61.43-19.20L61.43-19.20Q62.89-18.44 62.89-17.48Q62.89-16.52 62.63-15.31Q62.36-14.10 62.05-12.97L62.05-12.97L61.46-10.98Q61.19-10.12 61.19-9.66Q61.19-9.20 61.58-9.20L61.58-9.20Q62.52-9.20 65.31-11.86L65.31-11.86L67.21-13.63Q70.47-16.56 72.15-16.56L72.15-16.56Q72.95-16.56 73.57-15.94L73.57-15.94Q74.67-14.84 74.67-14.02L74.67-14.02Q74.67-13.57 74.36-12.81L74.36-12.81Q73.77-11.39 73.77-10.70Z"/></g>
</svg>
</g></svg></svg>